<?xml version="1.0" standalone="no"?><!DOCTYPE svg PUBLIC "-//W3C//DTD SVG 1.1//EN" "http://www.w3.org/Graphics/SVG/1.1/DTD/svg11.dtd"><svg class="icon" width="64px" height="64.00px" viewBox="0 0 1024 1024" version="1.1" xmlns="http://www.w3.org/2000/svg"><path fill="#333333" d="M484.46100645 627.90138495a28.76779355 28.76779355 0 0 1-20.34016344-49.107957l174.2671828-174.27268816a28.76779355 28.76779355 0 0 1 40.68473118 40.68032687l-174.2671828 174.27819355a28.6940215 28.6940215 0 0 1-20.34456774 8.42322581z"  /><path fill="#333333" d="M658.72708818 627.90138495a28.68301076 28.68301076 0 0 1-20.34016345-8.42322581l-174.26718279-174.27709248a28.76228818 28.76228818 0 0 1 0-40.68032687 28.75127742 28.75127742 0 0 1 40.68142795 0l174.2671828 174.27268816a28.77990537 28.77990537 0 0 1-20.34126451 49.107957z"  /><path fill="#333333" d="M834.5379785 821.18854194H340.57028818c-28.46940215 0-55.25305806-12.53684301-73.49016775-34.39428818L75.75838279 556.98112689c-10.54830108-13.06205592-16.20232258-28.91974194-16.1968172-44.98663226 0.00660645-15.39083011 4.67406452-29.85015053 13.50248602-41.81333334 0.33803011-0.45694624 0.68266666-0.90288172 1.04822366-1.33009892L266.70685592 237.63406452a95.32449032 95.32449032 0 0 1 73.86233118-34.82921291H834.5379785c51.98286452 0 94.27516559 42.28789677 94.27516558 94.27076129v429.83776344c0 51.98286452-42.29230108 94.27516559-94.27516558 94.2751656zM119.01522581 504.83420215c-0.90728602 1.35872689-1.91587097 3.52344086-1.91587097 7.17680861 0 2.92005161 1.14952258 6.01517419 3.15568172 8.50140214l191.02114409 229.45307528a38.55965592 38.55965592 0 0 0 29.29300645 13.69297203H834.5379785a36.78472258 36.78472258 0 0 0 36.74508387-36.74508387v-429.83776344a36.78472258 36.78472258 0 0 0-36.74508387-36.73957849H340.5691871a38.60590108 38.60590108 0 0 0-29.53524302 13.96934193L119.01522581 504.83420215z"  /></svg>